<svg id="Capa_1" data-name="Capa 1" xmlns="http://www.w3.org/2000/svg" viewBox="0 0 453.81 453.81"><defs><style>.cls-1{fill:#f4e72f;}.cls-2{fill:#71ba67;}.cls-3{fill:#cc3617;}.cls-4{fill:#010101;}.cls-5{fill:#fff;}</style></defs><g id="Escut_CCBM" data-name="Escut CCBM"><circle id="Base_Negra" data-name="Base Negra" cx="226.91" cy="226.91" r="226.91"/><g id="Escut_interior" data-name="Escut interior"><circle id="Base_groga" data-name="Base groga" class="cls-1" cx="226.91" cy="226.91" r="170.18"/><path d="M417.67,417.9A106.59,106.59,0,0,0,399,400.73c-8.3-6.2-7.24-5.58-13.71-9.39-7.55-4.45-13.34-10.7-18.21-17.91a130.88,130.88,0,0,1-13-25.59c-2.66-6.76-4.9-13.66-7.3-20.51-.62-1.77-1.29-3.52-2-5.27a8.31,8.31,0,0,0-1.28-2.6c-2-2.14-2.34-4.87-2.82-7.52-1-5.49-1.52-11-2.07-16.59-.43-4.32-.68-8.66-1.44-12.94a12.37,12.37,0,0,0-1.23-3.47,1.7,1.7,0,0,0-2.85-.64,7.67,7.67,0,0,0-1.73,2.07,53.57,53.57,0,0,0-7.36,19.51c-.15,1-.28,1.92-.37,2.89a17.26,17.26,0,0,0,1.55,9.25,42.86,42.86,0,0,1,4.07,18.27c0,3.95-.42,7.9-.74,11.85-.53,6.56-.42,13,1.58,19.42,4.12,13.25,9.7,25.69,18.23,36.66a57.38,57.38,0,0,0,8.24,9c9.84,8.25,13.66,15.35,18.69,23.33a108.72,108.72,0,0,1,7.84,14.88,170.83,170.83,0,0,0,35-26.87Z" transform="translate(-71.11 -71.14)"/><path d="M445.4,362.35c-3.62-1.27-6-2.64-11.7-3.85a8.05,8.05,0,0,1-2.83-1.19A46.47,46.47,0,0,1,419.05,346a12.27,12.27,0,0,1-2.5-6.43,11.53,11.53,0,0,0-1.89-5.06,43.21,43.21,0,0,0-5.56-7.2c-5.09-5.43-10.6-10.4-16-15.51A130.69,130.69,0,0,1,378,295.48c-.7-.93-1.32-1.92-2-2.85a18,18,0,0,1-3.3-9.37c-.57-5.74-1.4-11.45-2.1-17.18-.21-1.73-.43-3.47-.52-5.22a18.1,18.1,0,0,0-4.29-10.62,3.72,3.72,0,0,0-2.22-1.44,60.36,60.36,0,0,1-9.2-2.83c-.9-.33-1.83-.6-2.73-.95a5.75,5.75,0,0,0-4.63.09c-2.53,1.09-5.19,1.88-7.77,2.86a16.91,16.91,0,0,0-4.44,2.31c-1.18.93-1.84,2.27-.57,3.66a3.42,3.42,0,0,1,.72,1.57,14.94,14.94,0,0,0,5.26,8.41,20.4,20.4,0,0,1,5.2,6.91,140.45,140.45,0,0,1,7.28,19.25c3.18,9.86,5.89,19.87,9.25,29.68.31.92.67,1.83,1,2.75,2,6.37,6.11,11.18,10.83,15.59,6.93,6.48,14.25,12.52,21.35,18.82,8.67,7.69,16.84,15.81,23,25.78,2.32,3.74,5.21,7.1,7.49,10.86a40.24,40.24,0,0,0,5.63,7.41c.56.58,1,1,1.35,1.34a172.63,172.63,0,0,0,21.43-36A48.27,48.27,0,0,0,445.4,362.35Z" transform="translate(-71.11 -71.14)"/><path d="M468,305.57q.17-3.68.17-7.53c0-1.93,0-3.85-.11-5.77C451.19,284.15,443.63,279,440,275.63a49,49,0,0,1-9.17-8.26,22,22,0,0,0-5.5-4.82,55.06,55.06,0,0,1-13-10.93c-5.43-6.06-11.18-11.83-16.24-18.23a8.42,8.42,0,0,0-2-1.77c-1.38-.94-2.77-1.89-4.21-2.73-5-2.87-9.49-6.42-14.48-9.25a14.4,14.4,0,0,1-5.53-3.77c-2.31-2.74-5.5-4.19-8.46-6-.88-.53-1.85-.91-2.7-1.49a4.38,4.38,0,0,0-5.22,0c-.22.13-.46.23-.69.35-4.19,3.43-7.94,7.36-11.88,11.08-3.37,3.19-6.77,6.36-10.88,8.61q-3.63,3-7.25,6.07c-1.13,1-2.24,1.94-3.31,3-.42.4-.75.45-1.14,0-3.46-3.66-7.66-6.49-11.24-10a11.78,11.78,0,0,1-2.24-2.11l-4.8-5a16.87,16.87,0,0,0-6.93-4.37,4.85,4.85,0,0,0-3.53.52,45.7,45.7,0,0,0-5.09,3.13c-4.09,3.55-8.07,7.23-12,10.95-.46.43-.86.76-1.44.14-1.91-2-4.29-3.51-6.39-5.32a18.93,18.93,0,0,1-3.31-3.5c-2.45-3.16-5.25-6-7.62-9.24a25.28,25.28,0,0,0-2.3-2.33,2.55,2.55,0,0,0-1.76-.65,9,9,0,0,0-4.61,1.1c-2.16,1-4.06,2.46-6.1,3.65a78.59,78.59,0,0,1-13.23,9c-3.23,1.72-6.41,3.54-9.62,5.32-1.07.6-2.15,1.16-3.19,1.81-.64.4-1.05.3-1.41-.33a30.1,30.1,0,0,1-1.56-2.68,4,4,0,0,0-3.49-2.64,6.61,6.61,0,0,1-1.84-.56c-.71-.27-.95-.73-.59-1.52a31.23,31.23,0,0,1,1.6-2.89c2.2-3.7,1.16-9.86-2.13-12.62a8.32,8.32,0,0,0-10.79.57,12,12,0,0,0-2.43,13c.24.52.51,1,.76,1.55-.43.42-.72,0-1-.16a75.27,75.27,0,0,1-6.45-5.24,2.2,2.2,0,0,1-.66-1.56c-.19-1.35-.42-2.69-.67-4a8.6,8.6,0,0,0-1.27-3.23,4.94,4.94,0,0,1-.75-4.43,2.31,2.31,0,0,0-.08-1.89c-.13-.22-.32-.53-.25-.71.54-1.45-1-2.34-.93-3.74,0-1.13-1.16-1.49-2.15-.83a2.82,2.82,0,0,0-1.05,2.92c.23,1.07,1,2.12-.1,3.19-.25.24.18.71.35,1.05a6.84,6.84,0,0,1,.66,3.4c-.18,3.73.64,7.35,1.37,11a6.46,6.46,0,0,0,3,4.32c5.51,3.46,7.35,8.75,7,15a58.27,58.27,0,0,0-.44,7,1.91,1.91,0,0,1-1.36,2c-6.71,3.26-13.39,6.58-20,10.09a107.43,107.43,0,0,0-11.36,6.94c-5.64,4-11.47,7.65-17.22,11.46-2.35,1.56-4.79,3.27-4.79,3.27-1.67,1.13-3.09,2.11-4.21,2.88-.14,1.4-.26,2.81-.37,4.22l.3-.39s.72-.92,1.54-1.77c2.09-2.17,10.32-7.16,10.32-7.16,6.21-4.15,12.56-8.1,18.62-12.48A90.37,90.37,0,0,1,170.51,257c4.5-2.36,9.07-4.59,13.61-6.87a8.62,8.62,0,0,1,.86-.43c.94-.37,1.14-.27,1.17.74s0,2.21,0,3.31a31.63,31.63,0,0,0,1.23,10.19,41.71,41.71,0,0,1,1.53,8.4c.17,2.34-.68,3.86-2.84,4.68q-2.18.83-4.3,1.72c-5.61,2.37-7.26,5.69-5.66,11.59a16,16,0,0,1,.71,5.36,10,10,0,0,0,.92,4.34,20.22,20.22,0,0,1,1.4,5.63,6.64,6.64,0,0,0,1.2,3.46c2,2.66,2.31,5.89,2.86,9,.38,2.15.75,4.33,1,6.51a35.15,35.15,0,0,1-1.37,13.84,9.32,9.32,0,0,0-.34,5.33,5.27,5.27,0,0,1-.18,2.88,11.58,11.58,0,0,0-.19,5.76c.85,4.07.78,8.27,1.61,12.33a85.48,85.48,0,0,1,1.11,9.42,4.16,4.16,0,0,0,.5,2.06c1.24,1.74.16,3.36-.17,5-.12.59-.63.47-1.1.44a24.57,24.57,0,0,0-5.94-.2c-2.76.47-4.18,1.65-4.58,4.43-.49,3.48-.91,7.12-.09,10.46,1.43,5.84,2.18,11.87,4.52,17.47a28.36,28.36,0,0,0,2.11,4.37,3.35,3.35,0,0,1,.55,1.36,3.28,3.28,0,0,1-.18,1.56,170.89,170.89,0,0,0,32.8,24.55c.49-4.36,1-8.27,1.36-11.62,1.13-9.2,1.56-11.7,2.44-14.57.17-.54.91-3.07,2.07-6.26,1.53-4.2,3.11-8.38,3.72-12.86a11.85,11.85,0,0,0-.07-4.24,17.41,17.41,0,0,1-.29-6.19,12.69,12.69,0,0,0-.27-4.26,5.83,5.83,0,0,0-6.05-4.43c-1.21,0-2.43.18-3.64.31a1,1,0,0,1-1.29-1,11.57,11.57,0,0,1-.11-1.17,171.8,171.8,0,0,1,.61-19.25,41.56,41.56,0,0,0-.53-12.78,34.73,34.73,0,0,1-.93-8.68c0-.78,0-1.56-.05-2.34-.57-9.4,2-18.24,4.91-27a31.61,31.61,0,0,1,2.5-5.05,12.24,12.24,0,0,0,1.52-5,25.75,25.75,0,0,1,1.48-6.82,13.73,13.73,0,0,0,.94-4.55,5.9,5.9,0,0,0-3-5.5,28.14,28.14,0,0,0-9-3.2,4.72,4.72,0,0,1-2.59-1.47,5.74,5.74,0,0,1-1.69-4.57,58.28,58.28,0,0,1,1.36-8.24,68.15,68.15,0,0,0,1.24-9.64c.07-1.15-.12-2.32-.16-3.49,0-1.33.58-1.81,1.73-1.35,4,1.59,4.21,1.52,6.81-2,.61-.83,1.3-1.6,1.94-2.41a32.87,32.87,0,0,0,2-2.63c1.44-2.29,1.3-4-.52-6-1-1.15-2.23-2.15-3.32-3.25-1.78-1.78-1.78-1.81.35-3s4.47-2.57,6.75-3.78a117.66,117.66,0,0,0,17.34-11.2,32.31,32.31,0,0,1,4.75-3,6.33,6.33,0,0,1,2.32-.83c-.54,1.7-1,3.1-1.42,4.5A101.92,101.92,0,0,1,242.25,229a21,21,0,0,0-1.53,12.74,3,3,0,0,1-1.24,3.39,7.12,7.12,0,0,0-1.93,2.15c-2.77,4.29-5.55,8.58-8.3,12.89a21.18,21.18,0,0,0-2.24,4.3,2.37,2.37,0,0,0,.17,2.57,2.24,2.24,0,0,0,2.68.35,14.77,14.77,0,0,0,3.1-1.56c6.62-4.23,13.25-8.46,19.28-13.56a38,38,0,0,0,4.81-4.77,35.92,35.92,0,0,1,6.43-5.83c2.58-1.93,5.37-3.65,7.5-6.09,3-3.43,6.46-6.31,9.71-9.43a56.72,56.72,0,0,1,6.53-5.46,14.37,14.37,0,0,1,4-2.21c.28,1.9-.25,3.64-.42,5.4a11.05,11.05,0,0,1-.74,3,4.6,4.6,0,0,1-2.71,2.83,5.77,5.77,0,0,0-3.69,4.85,22.82,22.82,0,0,0-.22,5.42,35,35,0,0,1-.18,8.74,10.7,10.7,0,0,1-1.78,4.89c-2.18,2.82-3.31,6.12-4.56,9.39-.63,1.63-1.29,3.25-1.9,4.89a33.58,33.58,0,0,1-10.18,13.9,214.41,214.41,0,0,0-16.17,15.31A40.63,40.63,0,0,0,243.9,303a12.19,12.19,0,0,0-1.41,2.76c-.45,1.33-.09,3.18.65,3.62,1.06.63,2.23.46,3.53-.68,2.38-2.07,4.71-4.21,7.09-6.29a74.63,74.63,0,0,1,9.13-7.15c2.34-1.49,4.91-2.55,7.25-4a87,87,0,0,0,11.74-8.82,15.05,15.05,0,0,0,2.86-3.39,28.1,28.1,0,0,1,4.38-5.17c4.13-4.18,8.33-8.29,12.48-12.45a55.25,55.25,0,0,0,7.24-8.06c3.09-4.65,7.09-8.37,11.14-12.07.14-.13.39-.21.44-.36,1-3.15,4-4.46,6.15-6.47a53.76,53.76,0,0,1,7.39-5.6,57.12,57.12,0,0,0,8.16-6.81c3.11-2.92,6.15-5.9,9.23-8.85a20.7,20.7,0,0,1,3.31-2.67c1.07-.66,1.33-.6,2,.5a34.39,34.39,0,0,1,3.19,6.64,6.62,6.62,0,0,1-.11,4.74,28.63,28.63,0,0,1-2.53,4.81,35.27,35.27,0,0,0-3,5.85,49.9,49.9,0,0,1-2.62,5.41c-1.11,2-.37,3.37,1.93,3.62a4.42,4.42,0,0,0,1,0c4.46-.52,8.63.77,12.86,1.88a16,16,0,0,1,9.73,6.85c5.67,8.61,13,15.7,20,23.09,2.59,2.72,6,4.17,9.52,5.29a2,2,0,0,0,2.45-.53,2.26,2.26,0,0,0-.22-2.72,15.43,15.43,0,0,0-4.38-4.61c-6.23-4.12-10.29-10-13.73-16.5a179,179,0,0,0-11.79-19.63,20,20,0,0,0-3.11-3.7,3.08,3.08,0,0,1-1-1.42,81.29,81.29,0,0,0-3.49-8.88,10.67,10.67,0,0,1,2.89,2.31q4.92,5.37,10.34,10.21A35.54,35.54,0,0,1,392.34,244c2.48,4.77,4.71,9.66,6.79,14.62a41,41,0,0,0,9.93,14.65,97.59,97.59,0,0,1,9.53,10.17,34.23,34.23,0,0,0,5.66,5.56,20.3,20.3,0,0,0,8,3.67c2.81.64,5.58,1.48,8.38,2.13a42.56,42.56,0,0,1,5,2c5.54,2,10.8,4.81,16.52,6.41.5.14,2.05.77,4.13,1.6Zm-2.52,10.54c-10.31-.69-20.55-.26-30.3-4.26A49.91,49.91,0,0,1,420.28,302c-2.42-2.24-4.8-4.52-7.09-6.88a30,30,0,0,0-17.12-8.61q-2.94-.5-5.91-.81c-1.25-.12-1.44.21-1.09,1.45a4.51,4.51,0,0,0,2.05,2.5c1.67,1.1,3.37,2.14,5.08,3.18a55.45,55.45,0,0,1,8.48,6.06,20.53,20.53,0,0,1,6.13,9,30.64,30.64,0,0,0,10,14.69,16.37,16.37,0,0,1,6,8.8c.73,2.89,2.72,5.13,4.71,7.26a70.4,70.4,0,0,0,10.79,9.09c5.33,3.8,10.05,6.62,12.68,8.15,1,.61,1.92,1.11,2.54,1.45q1.59-4.23,3-8.78a170.63,170.63,0,0,0,6.65-32.36Zm-277.25,88c-1.88-.81-2.93-1.9-3.07-3.84s-.51-3.83-.63-5.76a4.16,4.16,0,0,0-1.29-2.5c-1.75-2.1-1.56-2.64,1.12-3.34.64-.16,1.09-.15,1.32.64,1.33,4.46,2.78,8.89,2.66,13.63C188.35,403.24,188.3,403.56,188.25,404.09ZM190,297.75a1.9,1.9,0,0,1-2.2-1.16,6.93,6.93,0,0,1-.29-1.31,6.85,6.85,0,0,0-3.07-4.91c-1.89-1.19-2.07-2.64-.7-4.4a11.32,11.32,0,0,1,5.28-3.73c1-.34,1.25-.1,1.28,1s0,2.07,0,2.95c-.51,2.86.45,5.4.88,8a12.57,12.57,0,0,1,.21,1.73A1.81,1.81,0,0,1,190,297.75Zm9,85.34a2.83,2.83,0,0,0-.56.09c-2.5.41-2.45.7-2.25-2.07.31-4.39.63-8.77,1.13-13.14.33-2.89.15-5.8.29-8.79.92.52.7,1.29.72,2,.08,2.4-.31,4.77-.31,7.18a21.7,21.7,0,0,0,1.24,8.38,21.62,21.62,0,0,1,1,4.93C200.36,382.57,200.05,383.15,199,383.09Zm13.13,10.53a31.91,31.91,0,0,0-1.79,7.53c-.14,1.29-.39,2.6-1.71,3.29-.78.42-1.25.22-1.33-.66a13,13,0,0,1,.31-5.2,3.24,3.24,0,0,1,1.28-1.88c1.62-1.05,1.76-2.6,1.4-4.29a13.59,13.59,0,0,1-.56-2.6C213.21,390.49,213.25,390.5,212.12,393.62Zm-6.43-109.07c2.23.77,4.55,1.4,6.35,3.06a2.29,2.29,0,0,1,.48,3.29,9.63,9.63,0,0,1-2.43,2.73,5.65,5.65,0,0,0-2.29,3.47,2,2,0,0,1-2.24,1.87,1.16,1.16,0,0,0-.18,0c-2.23.39-2.45.22-2.43-2.1a4.1,4.1,0,0,1,1-3c1.42-1.78,1.13-3.87,1.14-5.89a24.75,24.75,0,0,0-.35-2.69C204.68,284.72,205.09,284.34,205.69,284.55Zm7-42.65a19.09,19.09,0,0,1-3.6,3.18c-1.78,1-3,.38-3.06-1.71a14.72,14.72,0,0,1,1.82-6.94c1.72,1.58,3.23,3,4.75,4.33C213,241.12,213.16,241.48,212.72,241.9Z" transform="translate(-71.11 -71.14)"/><polygon class="cls-2" points="360.44 382.34 360.44 382.35 360.44 382.34 360.44 382.34"/><path class="cls-2" d="M210.09,293.63a9.63,9.63,0,0,0,2.43-2.73,2.29,2.29,0,0,0-.48-3.29c-1.8-1.66-4.12-2.29-6.35-3.06-.6-.21-1,.17-.94.83a24.75,24.75,0,0,1,.35,2.69c0,2,.28,4.11-1.14,5.89a4.1,4.1,0,0,0-1,3c0,2.32.2,2.49,2.43,2.1a1.16,1.16,0,0,1,.18,0,2,2,0,0,0,2.24-1.87A5.65,5.65,0,0,1,210.09,293.63Z" transform="translate(-71.11 -71.14)"/><path class="cls-2" d="M209.12,245.08a19.09,19.09,0,0,0,3.6-3.18c.44-.42.29-.78-.09-1.14-1.52-1.37-3-2.75-4.75-4.33a14.72,14.72,0,0,0-1.82,6.94C206.12,245.46,207.34,246.13,209.12,245.08Z" transform="translate(-71.11 -71.14)"/><path class="cls-2" d="M180.64,419.54a3.35,3.35,0,0,0-.55-1.36,28.36,28.36,0,0,1-2.11-4.37c-2.34-5.6-3.09-11.63-4.52-17.47-.82-3.34-.4-7,.09-10.46.4-2.78,1.82-4,4.58-4.43a24.57,24.57,0,0,1,5.94.2c.47,0,1,.15,1.1-.44.33-1.65,1.4-3.27.17-5a4.16,4.16,0,0,1-.5-2.06,85.48,85.48,0,0,0-1.11-9.42c-.83-4.06-.76-8.26-1.61-12.33a11.58,11.58,0,0,1,.19-5.76,5.27,5.27,0,0,0,.18-2.88,9.32,9.32,0,0,1,.34-5.33,35.15,35.15,0,0,0,1.37-13.84c-.27-2.18-.64-4.36-1-6.52-.55-3.08-.82-6.31-2.86-9a6.64,6.64,0,0,1-1.2-3.46,20.22,20.22,0,0,0-1.4-5.63,10,10,0,0,1-.92-4.34,16,16,0,0,0-.71-5.36c-1.6-5.9,0-9.22,5.66-11.59q2.13-.9,4.3-1.72c2.16-.82,3-2.34,2.84-4.68a41.71,41.71,0,0,0-1.53-8.4,31.63,31.63,0,0,1-1.23-10.19c.06-1.1.05-2.2,0-3.31s-.23-1.11-1.17-.74a8.62,8.62,0,0,0-.86.43c-4.54,2.28-9.11,4.51-13.61,6.87a90.37,90.37,0,0,0-11.42,6.47c-6.06,4.38-12.41,8.33-18.62,12.48,0,0-8.23,5-10.32,7.16-.82.85-1.54,1.77-1.54,1.77l-.3.39c-.31,4.22-.48,8.49-.48,12.8a169.65,169.65,0,0,0,52.63,123A3.22,3.22,0,0,0,180.64,419.54Z" transform="translate(-71.11 -71.14)"/><path class="cls-2" d="M184.38,388.65c-2.68.7-2.87,1.24-1.12,3.34a4.16,4.16,0,0,1,1.29,2.5c.12,1.93.5,3.84.63,5.76s1.19,3,3.07,3.84c.05-.53.1-.85.11-1.17.12-4.74-1.33-9.17-2.66-13.63C185.47,388.5,185,388.49,184.38,388.65Z" transform="translate(-71.11 -71.14)"/><path class="cls-2" d="M190.33,286.17c0-.88,0-1.92,0-2.95s-.3-1.32-1.28-1a11.32,11.32,0,0,0-5.28,3.73c-1.37,1.76-1.19,3.21.7,4.4a6.85,6.85,0,0,1,3.07,4.91,6.93,6.93,0,0,0,.29,1.31,1.9,1.9,0,0,0,2.2,1.16,1.81,1.81,0,0,0,1.4-1.85,12.57,12.57,0,0,0-.21-1.73C190.78,291.57,189.82,289,190.33,286.17Z" transform="translate(-71.11 -71.14)"/><path class="cls-2" d="M209.72,389.81a13.59,13.59,0,0,0,.56,2.6c.36,1.69.22,3.24-1.4,4.29a3.24,3.24,0,0,0-1.28,1.88,13,13,0,0,0-.31,5.2c.08.88.55,1.08,1.33.66,1.32-.69,1.57-2,1.71-3.29a31.91,31.91,0,0,1,1.79-7.53C213.25,390.5,213.21,390.49,209.72,389.81Z" transform="translate(-71.11 -71.14)"/><path class="cls-2" d="M199.25,376.7a21.7,21.7,0,0,1-1.24-8.38c0-2.41.39-4.78.31-7.18,0-.67.2-1.44-.72-2-.14,3,0,5.9-.29,8.79-.5,4.37-.82,8.75-1.13,13.14-.2,2.77-.25,2.48,2.25,2.07a2.83,2.83,0,0,1,.56-.09c1.06.06,1.37-.52,1.22-1.46A21.62,21.62,0,0,0,199.25,376.7Z" transform="translate(-71.11 -71.14)"/><path class="cls-2" d="M462.13,303.24c-5.72-1.6-11-4.37-16.52-6.41a42.56,42.56,0,0,0-5-2c-2.8-.65-5.57-1.49-8.38-2.13a20.3,20.3,0,0,1-8-3.67,34.23,34.23,0,0,1-5.66-5.56,97.59,97.59,0,0,0-9.53-10.17,41,41,0,0,1-9.93-14.65c-2.08-5-4.31-9.85-6.79-14.62a35.54,35.54,0,0,0-7.74-10.34q-5.42-4.84-10.34-10.21a10.67,10.67,0,0,0-2.89-2.31,81.29,81.29,0,0,1,3.49,8.88,3.08,3.08,0,0,0,1,1.42,20,20,0,0,1,3.11,3.7,179,179,0,0,1,11.79,19.63c3.44,6.5,7.5,12.38,13.73,16.5a15.43,15.43,0,0,1,4.38,4.61,2.26,2.26,0,0,1,.22,2.72,2,2,0,0,1-2.45.53c-3.53-1.12-6.93-2.57-9.52-5.29-7-7.39-14.37-14.48-20-23.09a16,16,0,0,0-9.73-6.85c-4.23-1.11-8.4-2.4-12.86-1.88a4.42,4.42,0,0,1-1,0c-2.3-.25-3-1.58-1.93-3.62a49.9,49.9,0,0,0,2.62-5.41,35.27,35.27,0,0,1,3-5.85,28.63,28.63,0,0,0,2.53-4.81,6.62,6.62,0,0,0,.11-4.74,34.39,34.39,0,0,0-3.19-6.64c-.68-1.1-.94-1.16-2-.5a20.7,20.7,0,0,0-3.31,2.67c-3.08,3-6.12,5.93-9.23,8.85a57.12,57.12,0,0,1-8.16,6.81,53.76,53.76,0,0,0-7.39,5.6c-2.18,2-5.12,3.32-6.15,6.47-.05.15-.3.23-.44.36-4.05,3.7-8.05,7.42-11.14,12.07a55.25,55.25,0,0,1-7.24,8.06c-4.15,4.16-8.35,8.27-12.48,12.45a28.1,28.1,0,0,0-4.38,5.17,15.05,15.05,0,0,1-2.86,3.39,87,87,0,0,1-11.74,8.82c-2.34,1.49-4.91,2.55-7.25,4a74.63,74.63,0,0,0-9.13,7.15c-2.38,2.08-4.71,4.22-7.09,6.29-1.3,1.14-2.47,1.31-3.53.68-.74-.44-1.1-2.29-.65-3.62A12.19,12.19,0,0,1,243.9,303a40.63,40.63,0,0,1,4.76-5.86,214.41,214.41,0,0,1,16.17-15.31A33.58,33.58,0,0,0,275,267.89c.61-1.64,1.27-3.26,1.9-4.89,1.25-3.27,2.38-6.57,4.56-9.39a10.7,10.7,0,0,0,1.78-4.89,35,35,0,0,0,.18-8.74,22.82,22.82,0,0,1,.22-5.42,5.77,5.77,0,0,1,3.69-4.85,4.6,4.6,0,0,0,2.71-2.83,11.05,11.05,0,0,0,.74-3c.17-1.76.7-3.5.42-5.4a14.37,14.37,0,0,0-4,2.21,56.72,56.72,0,0,0-6.53,5.46c-3.25,3.12-6.73,6-9.71,9.43-2.13,2.44-4.92,4.16-7.5,6.09a35.92,35.92,0,0,0-6.43,5.83,38,38,0,0,1-4.81,4.77c-6,5.1-12.66,9.33-19.28,13.56a14.77,14.77,0,0,1-3.1,1.56,2.24,2.24,0,0,1-2.68-.35,2.37,2.37,0,0,1-.17-2.57,21.18,21.18,0,0,1,2.24-4.3c2.75-4.31,5.53-8.6,8.3-12.89a7.12,7.12,0,0,1,1.93-2.15,3,3,0,0,0,1.24-3.39A21,21,0,0,1,242.25,229a101.92,101.92,0,0,0,4.16-12.12c.42-1.4.88-2.8,1.42-4.5a6.33,6.33,0,0,0-2.32.83,32.31,32.31,0,0,0-4.75,3,117.66,117.66,0,0,1-17.34,11.2c-2.28,1.21-4.51,2.5-6.75,3.78s-2.13,1.24-.35,3c1.09,1.1,2.28,2.1,3.32,3.25,1.82,2,2,3.71.52,6a32.87,32.87,0,0,1-2,2.63c-.64.81-1.33,1.58-1.94,2.41-2.6,3.5-2.82,3.57-6.81,2-1.15-.46-1.78,0-1.73,1.35,0,1.17.23,2.34.16,3.49a68.15,68.15,0,0,1-1.24,9.64,58.28,58.28,0,0,0-1.36,8.24,5.74,5.74,0,0,0,1.69,4.57,4.72,4.72,0,0,0,2.59,1.47,28.14,28.14,0,0,1,9,3.2,5.9,5.9,0,0,1,3,5.5,13.73,13.73,0,0,1-.94,4.55,25.75,25.75,0,0,0-1.48,6.82,12.24,12.24,0,0,1-1.52,5,31.61,31.61,0,0,0-2.5,5.05c-2.94,8.74-5.48,17.58-4.91,27,.05.78.06,1.56.05,2.34a34.73,34.73,0,0,0,.93,8.68,41.56,41.56,0,0,1,.53,12.78,171.8,171.8,0,0,0-.61,19.25,11.57,11.57,0,0,0,.11,1.17,1,1,0,0,0,1.29,1c1.21-.13,2.43-.3,3.64-.31a5.83,5.83,0,0,1,6.05,4.43,12.69,12.69,0,0,1,.27,4.26,17.41,17.41,0,0,0,.29,6.19,12.08,12.08,0,0,1,.07,4.24c-.61,4.48-2.19,8.66-3.72,12.86-1.16,3.19-1.9,5.72-2.07,6.26-.88,2.87-1.31,5.37-2.44,14.57-.41,3.35-.87,7.25-1.35,11.61a170.32,170.32,0,0,0,169.91-.24,108.72,108.72,0,0,0-7.84-14.88c-5-8-8.85-15.08-18.69-23.33a57.83,57.83,0,0,1-8.24-9c-8.53-11-14.11-23.41-18.23-36.66-2-6.44-2.11-12.86-1.58-19.42.32-3.95.76-7.9.74-11.85A42.86,42.86,0,0,0,325.27,312a17.26,17.26,0,0,1-1.55-9.25c.09-1,.22-1.93.37-2.89a53.57,53.57,0,0,1,7.36-19.51,7.67,7.67,0,0,1,1.73-2.07,1.7,1.7,0,0,1,2.85.64,12.37,12.37,0,0,1,1.23,3.47c.76,4.28,1,8.62,1.44,12.94.55,5.55,1.09,11.1,2.07,16.59.48,2.65.85,5.38,2.82,7.52a8.31,8.31,0,0,1,1.28,2.6c.7,1.75,1.37,3.5,2,5.27,2.4,6.85,4.64,13.75,7.3,20.51a130.88,130.88,0,0,0,13,25.59c4.87,7.21,10.66,13.46,18.21,17.91,6.46,3.81,5.41,3.19,13.71,9.39a106.59,106.59,0,0,1,18.63,17.17l.52.62a173.56,173.56,0,0,0,14.32-16.21c-.32-.3-.79-.76-1.35-1.34a40.24,40.24,0,0,1-5.63-7.41c-2.28-3.76-5.17-7.12-7.49-10.86-6.19-10-14.36-18.09-23-25.78-7.1-6.3-14.42-12.34-21.35-18.82-4.72-4.41-8.87-9.22-10.83-15.59-.29-.92-.65-1.83-1-2.75-3.36-9.81-6.07-19.82-9.25-29.68a140.45,140.45,0,0,0-7.28-19.25,20.4,20.4,0,0,0-5.2-6.91,14.94,14.94,0,0,1-5.26-8.41,3.42,3.42,0,0,0-.72-1.57c-1.27-1.39-.61-2.73.57-3.66a16.91,16.91,0,0,1,4.44-2.31c2.58-1,5.24-1.77,7.77-2.86a5.75,5.75,0,0,1,4.63-.09c.9.35,1.83.62,2.73.95a60.36,60.36,0,0,0,9.2,2.83,3.72,3.72,0,0,1,2.22,1.44A18.1,18.1,0,0,1,370,260.86c.09,1.75.31,3.49.52,5.22.7,5.73,1.53,11.44,2.1,17.18a18,18,0,0,0,3.3,9.37c.7.93,1.32,1.92,2,2.85a130.69,130.69,0,0,0,15.16,16.3c5.39,5.11,10.9,10.08,16,15.51a43.21,43.21,0,0,1,5.56,7.2,11.53,11.53,0,0,1,1.89,5.06,12.27,12.27,0,0,0,2.5,6.43,46.47,46.47,0,0,0,11.82,11.33,8.05,8.05,0,0,0,2.83,1.19c5.68,1.21,8.08,2.58,11.7,3.85a47.92,47.92,0,0,1,8.53,4q1.94-4.41,3.63-8.94c-.62-.35-1.5-.84-2.54-1.45-2.63-1.53-7.35-4.35-12.68-8.15a70.4,70.4,0,0,1-10.79-9.09c-2-2.13-4-4.37-4.71-7.26a16.37,16.37,0,0,0-6-8.8,30.64,30.64,0,0,1-10-14.69,20.53,20.53,0,0,0-6.13-9,55.45,55.45,0,0,0-8.48-6.06c-1.71-1-3.41-2.08-5.08-3.18a4.51,4.51,0,0,1-2.05-2.5c-.35-1.24-.16-1.57,1.09-1.45q3,.32,5.91.81a30,30,0,0,1,17.12,8.61c2.29,2.36,4.67,4.64,7.09,6.88a49.91,49.91,0,0,0,14.92,9.85c9.75,4,20,3.57,30.3,4.26l1.71.12c.37-3.53.65-7.08.81-10.67l-1.76-.72C464.18,304,462.63,303.38,462.13,303.24ZM261.63,453.73Z" transform="translate(-71.11 -71.14)"/><g id="Senyera"><path id="S4" class="cls-3" d="M358.68,208.4c.85.58,1.82,1,2.7,1.49,3,1.79,6.15,3.24,8.46,6a14.4,14.4,0,0,0,5.53,3.77c.7.4,1.38.81,2.06,1.23V147.51a168.22,168.22,0,0,0-22.69-9.95v70.19A4.3,4.3,0,0,1,358.68,208.4Z" transform="translate(-71.11 -71.14)"/><path id="S3" class="cls-3" d="M318.31,237.48c.39.41.72.36,1.14,0,1.07-1,2.18-2,3.31-3q3.62-3,7.25-6.07c.7-.38,1.37-.8,2-1.24v-95.9a171,171,0,0,0-22.69-3V229.57C312.36,232.19,315.56,234.57,318.31,237.48Z" transform="translate(-71.11 -71.14)"/><path id="S2" class="cls-3" d="M271,230.67c.58.62,1,.29,1.44-.14,3.94-3.72,7.92-7.4,12-10.95.75-.45,1.46-1,2.19-1.44V128.25a170.82,170.82,0,0,0-22.69,3v93.48l.66.6C266.74,227.16,269.12,228.63,271,230.67Z" transform="translate(-71.11 -71.14)"/><path id="S1" class="cls-3" d="M238.94,214.38c.79-.47,1.57-1,2.35-1.47V137.56a167.12,167.12,0,0,0-22.69,9.95v79.77c2.36-1.33,4.72-2.65,7.11-3.92A78.59,78.59,0,0,0,238.94,214.38Z" transform="translate(-71.11 -71.14)"/></g></g><path id="Correció_marge" data-name="Correció marge" class="cls-4" d="M298,468.52a170.47,170.47,0,1,1,120.55-49.93A169.34,169.34,0,0,1,298,468.52Zm0-340.36c-93.67,0-169.88,76.21-169.88,169.88S204.34,467.92,298,467.92,467.89,391.72,467.89,298,391.68,128.16,298,128.16Z" transform="translate(-71.11 -71.14)"/><g id="Lletres"><path class="cls-5" d="M446.76,176.18a16.47,16.47,0,0,0,6.57-1.45,82,82,0,0,0,7.93-4.3A23.09,23.09,0,0,1,471.54,167c2.65-.13,3.58.91,3.06,3.56a10.9,10.9,0,0,1-1.85,4,35.58,35.58,0,0,1-5.19,5.91,51.9,51.9,0,0,1-12.31,8.78,12.75,12.75,0,0,1-3.78,1.35c-.53.08-1.19.33-1.53-.37s.22-.95.55-1.31a63.31,63.31,0,0,1,4.59-4.38c3.2-2.85,6.55-5.54,9.48-8.7a12.27,12.27,0,0,0,3.19-4.84,4.42,4.42,0,0,0-2.08.59c-3.55,1.47-6.92,3.33-10.36,5a42,42,0,0,1-12.1,4.23,6,6,0,0,1-2.41.08,14.09,14.09,0,0,1,1-5,32.19,32.19,0,0,1,4.63-8.37c1.45-2,2.92-4.05,4.33-6.11a26.06,26.06,0,0,0,2.61-4.89c-.85-.47-1.39.12-1.94.5-1.46,1-2.89,2.12-4.33,3.19-3.43,2.58-6.77,5.28-10.43,7.53a11.55,11.55,0,0,1-3.46,1.63c-1.17.25-1.57-.22-1.18-1.37a8.23,8.23,0,0,1,1.6-2.6,28.42,28.42,0,0,1,5.53-4.74,101.69,101.69,0,0,1,10.4-6.18l8.62-4.63a1.71,1.71,0,0,1,2.68,1.59,16.49,16.49,0,0,1-1.15,6,32.36,32.36,0,0,1-4.95,8.63c-2,2.52-4,5-6,7.47C448.12,174.32,447.58,175.09,446.76,176.18Z" transform="translate(-71.11 -71.14)"/><path class="cls-5" d="M360.15,127a4.77,4.77,0,0,1-.55-2.88,42,42,0,0,1,1.48-9.65,123.63,123.63,0,0,1,6.57-19.63,2.42,2.42,0,0,1,2.12-1.51c6.78-1.33,12.74,7.13,10,14-1.07,2.63-2.62,4.83-5.5,5.77a7.39,7.39,0,0,0-.88.36c-2.06.94-2.12,1.15-1.15,3.2a8.21,8.21,0,0,1,.88,3.51,6.45,6.45,0,0,1-6.89,6.82,6.86,6.86,0,0,1-3-.55A2.18,2.18,0,0,0,360.15,127ZM372,94.81c-1.48,5.6-2.94,11.09-4.38,16.59-.25,1,0,1.26.94,1.34a2.7,2.7,0,0,0,1.8-.54,15,15,0,0,0,6.41-8.78C377.75,99.53,376,96.39,372,94.81ZM364,124.93a5.9,5.9,0,0,0,5.72-3.7,4.58,4.58,0,0,0-1.49-5.48c-.68-.52-1.16-.6-1.75.15a27.37,27.37,0,0,0-4,8c-.2.58,0,.84.57.93C363.45,124.9,363.84,124.91,364,124.93Z" transform="translate(-71.11 -71.14)"/><path class="cls-5" d="M300.62,116.64a11.81,11.81,0,0,0,3.21-4q1.14-2.1,2.22-4.25c.38-.76.83-1,1.67-.58a1.15,1.15,0,0,1,.69,1.66,17.55,17.55,0,0,1-6.92,8.94,1.12,1.12,0,0,1-1.23.23c-.69-.35-1.38-.67-2.09-1s-.79-1-.86-1.59c-.18-1.76-.32-3.52-.47-5.26-.66-.2-.84.33-1.13.61a23.74,23.74,0,0,1-5.81,4.35c-4,1.92-6.68.32-7-4.07a9,9,0,0,1,2.26-6.35,32.1,32.1,0,0,1,4.91-4.84c1.18-1,2.33-2,3.52-3a5.61,5.61,0,0,0,2-5.67c-.17-1-.4-2-.55-3a6.52,6.52,0,0,1,1.76-6c.93-.92,1.65-.77,2.09.5a37.76,37.76,0,0,1,1.79,8.62,81.94,81.94,0,0,1,.27,11.3c-.16,3.9-.24,7.8-.35,11.7C300.61,115.36,300.62,115.8,300.62,116.64ZM295.17,98c-3,2.69-5.85,5.45-7.5,9.18A9.43,9.43,0,0,0,287,113c.23,1.16.55,1.36,1.73,1.1a7.18,7.18,0,0,0,3.48-1.94,14.19,14.19,0,0,0,4.23-8.4A7.11,7.11,0,0,0,295.17,98Z" transform="translate(-71.11 -71.14)"/><path class="cls-5" d="M476.05,329.52a10,10,0,0,0,7.22,5.55c4.41,1.05,8.79.52,13.13-.5a28.87,28.87,0,0,0,6.85-2.45,2.71,2.71,0,0,1,.68-.34,1.46,1.46,0,0,1,1.67.61,1.36,1.36,0,0,1-.19,1.61,7.61,7.61,0,0,1-2,1.5,25.87,25.87,0,0,1-8.57,2.68c-.95.16-1.9.29-2.85.41a.83.83,0,0,0-.76.5c-.15.44.15.72.49.94,1.5,1,3,1.91,4.5,2.93a24.17,24.17,0,0,1,6.15,5.74c.44.64,1.52,1.17.69,2.28s-.87,1.08-2.61.46a59.21,59.21,0,0,1-8-3.65,81,81,0,0,1-16.27-11.16,25.55,25.55,0,0,1-3.38-3.67,2,2,0,0,1-.27-2.14,7,7,0,0,1,4.1-4.29,12.71,12.71,0,0,1,6.44-.53c.38.05.81.12.86.6s-.41.59-.75.7C480.86,328,478.54,328.75,476.05,329.52Z" transform="translate(-71.11 -71.14)"/><path class="cls-5" d="M102.91,339.67a30,30,0,0,0,9.13-1.23c2.33-.77,4.27-2,5.22-4.45a4.45,4.45,0,0,0-1.73-5.87,18,18,0,0,0-5.27-2.27c-1-.31-2-.58-2.93-.91-.57-.18-.62-.58-.27-1a2.49,2.49,0,0,1,1.76-1A9.13,9.13,0,0,1,119.4,333a16.11,16.11,0,0,1-1.12,5,13.91,13.91,0,0,1-10.21,8.74c-7.28,1.62-13.46-.17-18.28-5.95a11.7,11.7,0,0,1-2.55-9.72,4.9,4.9,0,0,1,2.37-3.56.9.9,0,0,1,1.07-.07c.4.28.25.67.14,1-.18.61-.35,1.23-.53,1.84a16.58,16.58,0,0,0-.7,3.18c-.32,3.67.25,4.44,3.81,5.16A51.68,51.68,0,0,0,102.91,339.67Z" transform="translate(-71.11 -71.14)"/><path class="cls-5" d="M126.47,212.94a2.3,2.3,0,0,1,2.64-.72c5.8,1.9,8.2,7.31,5.73,12.9-2.37,5.34-8.75,10.09-16,8.58-6.81-1.43-11.64-5.09-14.09-11.67a12.4,12.4,0,0,1,.28-9.55,6,6,0,0,1,3.95-3.9c.55-.14,1.18-.42,1.61.14s-.19,1-.51,1.45c-.55.71-1.16,1.37-1.73,2.06a10.48,10.48,0,0,0-1.48,2.24c-1.46,3-1.34,3.59,1.39,5.54a44.52,44.52,0,0,0,14.93,7.28,11.82,11.82,0,0,0,5.7.28,7,7,0,0,0,1.95-.76c3.32-2,3.9-4.81,1.61-7.92a28.89,28.89,0,0,0-4.21-4.21A9.43,9.43,0,0,1,126.47,212.94Z" transform="translate(-71.11 -71.14)"/><path class="cls-5" d="M464.22,220.15a12.39,12.39,0,0,1,3.56-3.52,31.51,31.51,0,0,1,9.28-4.06c3.37-1,6.82-1.76,10.16-2.89a2.45,2.45,0,0,1,2.55.8c.56.76.21,1.44-.18,2.13-.84,1.48-.82,1.47.24,2.88a16.54,16.54,0,0,1,1.35,2.09c1.51,2.86,1.09,5.23-1.3,7.43a23.8,23.8,0,0,1-4.09,2.86c-1.43.84-2.89,1.66-4.31,2.52a6.88,6.88,0,0,0-2.33,2,10.74,10.74,0,0,0,3-.14,10.29,10.29,0,0,1,5.46.66c.34.15.77.28.8.74a.93.93,0,0,1-.81.94c-3.48.9-7,1.81-10.6,1a6.7,6.7,0,0,1-3-1.54,1.1,1.1,0,0,1-.15-1.68,11.73,11.73,0,0,1,3.23-3,47.18,47.18,0,0,1,4.9-2.65,26.74,26.74,0,0,0,4-2.27,8.89,8.89,0,0,0,3.32-4.12c.68-1.78-1-4.58-2.83-4.86-.5-.07-.84.24-1.25.41a67.11,67.11,0,0,1-14.86,4.45A10.91,10.91,0,0,1,464.22,220.15Z" transform="translate(-71.11 -71.14)"/><path class="cls-5" d="M495.31,276.09a1.76,1.76,0,0,1,.93,1,4.83,4.83,0,0,0,3.07,3c1.81.8,3.65,1.56,5.48,2.32a22.27,22.27,0,0,1,5.22,2.81c1.62,1.26,2.71,2.85,2.12,5-.66,2.34-1.84,4.39-4.41,5.16a5.37,5.37,0,0,1-4.05-.75,14.6,14.6,0,0,1-4-3.22,24.19,24.19,0,0,1-4.69-7,1.16,1.16,0,0,0-1.45-.83,8.75,8.75,0,0,0-4.4,1.77,4,4,0,0,0-1.24,4.83,6.06,6.06,0,0,0,2.22,2.83c1,.68,2,1.34,3,2a5.52,5.52,0,0,1,2,2.08.47.47,0,0,1-.65.38,14.63,14.63,0,0,1-7.29-3.64c-4.79-4.6-3.45-11.72,2.69-14.27a11.85,11.85,0,0,1,1.45-.51,8.88,8.88,0,0,1,1.69-.34,1.5,1.5,0,0,0,1.48-1C494.72,277.21,495,276.72,495.31,276.09Zm3.52,8.23a4.54,4.54,0,0,0,1.65,4.07,10.67,10.67,0,0,0,5.61,2.65c.79.13,1.58.35,2-.53.35-.72-.38-1.12-.78-1.54C505,286.57,502.1,285.41,498.83,284.32Z" transform="translate(-71.11 -71.14)"/><path class="cls-5" d="M222.05,124c.69.27.87.88,1,1.5a8.9,8.9,0,0,1,.13,4.93,11.28,11.28,0,0,1-7.15,8,7.29,7.29,0,0,1-9.21-3,7.61,7.61,0,0,1-.91-1.68c-.3-.85-.76-1.29-1.69-1.12a2.25,2.25,0,0,1-.58,0c-.95-.11-1.3-.63-.79-1.39,1.44-2.12,1.65-4.52,1.74-7,.08-2,.12-4.1.35-6.13.41-3.66,2.18-5.66,5.35-6.45a2.32,2.32,0,0,1,2.13.44,7.34,7.34,0,0,1,2.47,3.13,11.69,11.69,0,0,1-1.19,11.34,6.9,6.9,0,0,1-2.88,2.47,1.23,1.23,0,0,0-.76,1.54c.35,2.56,3.81,5.15,6.36,4.77a3.32,3.32,0,0,0,2.27-1.63,12.84,12.84,0,0,0,1.55-3.91c.42-1.54.78-3.1,1.17-4.65A1.7,1.7,0,0,1,222.05,124Zm-13.56-1.33c0,.45.09,1.27.2,2.09,0,.34,0,.81.47.92a.93.93,0,0,0,1-.48,9.83,9.83,0,0,0,2.16-7.85,4.44,4.44,0,0,0-1-2c-.4-.51-.82-.61-1.19,0a9.85,9.85,0,0,0-.75,1.53A18,18,0,0,0,208.49,122.67Z" transform="translate(-71.11 -71.14)"/><path class="cls-5" d="M321.8,117.23a9.22,9.22,0,0,1-9.43-8.8c-.1-1.43-.19-2.6-1.76-3.15-.72-.25-.58-.89-.06-1.15,2.71-1.37,3.94-3.94,5.37-6.36a10.31,10.31,0,0,1,4.78-4.54,39.62,39.62,0,0,0,4.06-2.18,1.72,1.72,0,0,1,1.8,0,5.71,5.71,0,0,1,3.53,5.07,9.49,9.49,0,0,1-6,9.17,17.72,17.72,0,0,1-5.42,1.18A1.49,1.49,0,0,0,317,107.9a13.84,13.84,0,0,0-.17,2.87c.19,2.67,1.92,4,4.58,3.55a13.45,13.45,0,0,0,7.74-4.67c.3-.33.55-.71.83-1.06s.4-.52.78-.36a.61.61,0,0,1,.31.81c-1,3.66-2.95,6.5-6.72,7.78A7,7,0,0,1,321.8,117.23Zm-2.88-14.36c4,0,8-3.9,8-7.52a1.13,1.13,0,0,0-.64-1.07c-.43-.25-.73,0-1,.25a29.2,29.2,0,0,0-4.36,4.32A9.15,9.15,0,0,0,318.92,102.87Z" transform="translate(-71.11 -71.14)"/><path class="cls-5" d="M183.88,147.31a3.06,3.06,0,0,1,1.9,1.86,9.4,9.4,0,0,1,.27,7.12,11.57,11.57,0,0,1-7.86,7.56,5.88,5.88,0,0,1-7.34-3,2.11,2.11,0,0,0-2.51-1.41,2.46,2.46,0,0,1-1.55-.11c-.23-.84.31-1.45.72-2.06a1.7,1.7,0,0,0,0-1.92,17.62,17.62,0,0,1-1-13.07,10.76,10.76,0,0,1,2.44-4.09,2.32,2.32,0,0,1,2.77-.67A13.18,13.18,0,0,1,174.7,139a5.64,5.64,0,0,1,2.65,5,13.8,13.8,0,0,1-.94,4.49c-.76,2.1-1.54,4.2-2.41,6.26a2,2,0,0,0,.59,2.56,8.78,8.78,0,0,0,3,2,4.49,4.49,0,0,0,6-2.4,9.55,9.55,0,0,0,.77-5.43C184.2,150.14,184.06,148.83,183.88,147.31Zm-11.48,4.6c2.53-4.23,2-9.34-1.07-11.24C169.29,143.48,169.78,149.25,172.4,151.91Z" transform="translate(-71.11 -71.14)"/><path class="cls-5" d="M119.36,253.49c-.25-1.32-1.61-1.93-2.14-3.23a3.19,3.19,0,0,1,3.49.89,3.71,3.71,0,0,1,1.48,3.54A1.46,1.46,0,0,1,121,256c-.68.15-1.34.41-2,.62-1.57.49-1.58.49-1.16,2a12,12,0,0,1,.3,5.5c-.85,4.72-4.42,7.11-9.1,6.1a10.18,10.18,0,0,1-6.14-4A17.54,17.54,0,0,1,99.41,254c.12-1.66.15-1.65-1.24-2.41a4.43,4.43,0,0,1-1.07-.79c-.36-.41-.91-.82-.53-1.49a1.29,1.29,0,0,1,1.64-.57c2.79.7,5.6,1.35,8.4,2l11.58,2.72A1.48,1.48,0,0,0,119.36,253.49Zm-16.68-.05a5.11,5.11,0,0,0,.14,2.71,16.24,16.24,0,0,0,7.71,9.16c2.47,1.35,4.51.3,5.2-2.46a13.85,13.85,0,0,0-.08-5.33,1.29,1.29,0,0,0-1.09-1.16C110.65,255.42,106.76,254.44,102.68,253.44Z" transform="translate(-71.11 -71.14)"/><path class="cls-5" d="M262.83,119.32c.91-.94.94-2.28,1.71-3.22.62,0,.74.45.87.85a4.47,4.47,0,0,1-.86,4.33c-1.21,1.56-2.4,1.57-3.78.13-.66-.69-1.3-1.4-1.88-2-.84.08-1.11.66-1.51,1a11.86,11.86,0,0,1-6.3,3,6.73,6.73,0,0,1-7.46-4.12,10.44,10.44,0,0,1,.78-9.93,17.6,17.6,0,0,1,8.88-7.59c1-.42,1.86-.73,1.44-2.1a2.57,2.57,0,0,1,.38-1.85c.19-.41.43-.8,1-.7a1.11,1.11,0,0,1,1,.77c.17.61.33,1.23.49,1.85q2.31,9.21,4.63,18.42C262.32,118.58,262.29,119,262.83,119.32Zm-7.69-14.86a6.44,6.44,0,0,0-2.83,1.9,13.43,13.43,0,0,0-2.06,3,16.23,16.23,0,0,0-2.09,7.5c0,2.87,1.78,4.2,4.56,3.53a13.84,13.84,0,0,0,4.56-2.39,1.57,1.57,0,0,0,.65-2C257,112.25,256.1,108.45,255.14,104.46Z" transform="translate(-71.11 -71.14)"/><path class="cls-5" d="M146.74,199.89c-.08-1.34-.94-2.41-1.07-3.67,2.6.27,4.4,3.33,3.39,5.51a1.66,1.66,0,0,1-1.8,1.13c-.83-.09-1.67,0-2.49-.16-1.06-.16-1.32.26-1.32,1.26a11.12,11.12,0,0,1-1.87,6.16c-2.36,3.61-6.06,4.52-9.84,2.44s-5.18-5.36-5.61-9.29a17.4,17.4,0,0,1,1.72-9.88c.44-.87.57-1.46-.33-2.06a3.2,3.2,0,0,1-1.23-1.9c-.11-.39-.17-.78.24-1s.73-.55,1.22-.23.76.48,1.13.72l16,10.19A3.07,3.07,0,0,0,146.74,199.89Zm-15.81-5.54a6.17,6.17,0,0,0-.76,4,17.78,17.78,0,0,0,3,8.4,8.58,8.58,0,0,0,1.63,1.88,3.15,3.15,0,0,0,4.75-.36,9,9,0,0,0,1.75-3.59c.84-2.94.84-2.94-1.69-4.59l-4.16-2.75Z" transform="translate(-71.11 -71.14)"/><path class="cls-5" d="M489.78,320.86c2.63,1.84,6.65,1.9,7.86,6.15-5-1.1-9.33-2.67-12.76-6.21-.8-.83-.78-1.05.07-1.87a6.3,6.3,0,0,1,3.85-1.53,45,45,0,0,1,5.57-.14,24.07,24.07,0,0,0,6.87-.64,6.82,6.82,0,0,0,3.89-2.65,2.2,2.2,0,0,0,.29-2.12,3.88,3.88,0,0,0-3.54-3.12c-3.23-.51-6.48-.84-9.71-1.3a27,27,0,0,1-6.14-1.51,13.17,13.17,0,0,1-3.18-1.76c-.68-.51-.57-1.09.25-1.37a8.86,8.86,0,0,1,2.46-.35,47.35,47.35,0,0,1,9,.85c3.68.55,7.34,1.25,11.08.73a1.67,1.67,0,0,1,1.4.45c.34.29.7.55,1.05.83,1.63,1.26,1.49,2.58-.52,3.23-1.07.36-1.06.8-.83,1.65s.41,1.88.59,2.82a5.2,5.2,0,0,1-2.72,6,10.34,10.34,0,0,1-4,1.16,53.67,53.67,0,0,1-6.34.23c-1.46,0-2.91,0-4.37,0Z" transform="translate(-71.11 -71.14)"/><path class="cls-5" d="M389.33,135.41c.66.39,1,0,1.37-.2a3.7,3.7,0,0,1,1.59-.62c.72-.07,1,.27.74.9a5.37,5.37,0,0,1-4.93,2.74,2.59,2.59,0,0,1-1.92-2.46c.05-.82.64-1.76.12-2.41s-1.66-.49-2.52-.71c-1.42-.36-2.9-.53-4.3-.94a6.92,6.92,0,0,1-3.13-11.6,12.78,12.78,0,0,1,6.87-3.59,23.94,23.94,0,0,1,11,0,1.83,1.83,0,0,0,2.16-.57,13.9,13.9,0,0,1,1.09-1.08c.27-.27.55-.6,1-.31s.93.53.83,1.17a15.15,15.15,0,0,1-.31,1.49,21.67,21.67,0,0,1-3.41,6.83c-1.18,1.67-2.39,3.32-3.53,5A18,18,0,0,0,389.33,135.41Zm2-16.63c-3,.63-6.1,1.14-8.77,2.94a8.5,8.5,0,0,0-3.39,4.51c-.5,1.49-.46,1.64.78,2.55a14,14,0,0,0,5.82,2.31,1.61,1.61,0,0,0,1.68-.61,27.31,27.31,0,0,0,5.48-9.79C393.39,119.25,393,118.72,391.35,118.78Z" transform="translate(-71.11 -71.14)"/><path class="cls-5" d="M481.57,196.3c0,6-5,12.12-10.69,13.12a11.39,11.39,0,0,1-11.62-5,11.93,11.93,0,0,1,1-13.16c2.17-2.78,4.94-4.39,8.6-4.15a35.13,35.13,0,0,1,6.1.45,8.43,8.43,0,0,1,6.62,8C481.58,195.78,481.57,196,481.57,196.3ZM467.35,207a12.87,12.87,0,0,0,11.26-8.33,5.53,5.53,0,0,0-4-7.28,2.62,2.62,0,0,0-1.68.09,41.39,41.39,0,0,0-9.08,4.46,11.87,11.87,0,0,0-3.19,3,3.76,3.76,0,0,0,.35,5.21A8.64,8.64,0,0,0,467.35,207Z" transform="translate(-71.11 -71.14)"/><path class="cls-5" d="M112.81,277c0-1-.91-1.55-1-2.4,2.13-.1,2.9.29,3.54,1.8.75,1.79.47,2.84-1.14,3.95a13.69,13.69,0,0,1-6.7,2.1,59.1,59.1,0,0,1-24-2.93c-.91-.3-1.76-.77-2.64-1.14a1.42,1.42,0,0,1-.92-1.49c0-1.83,0-1.87,1.76-2.26a28.53,28.53,0,0,1,8.79-.43c6.18.58,12.29,1.62,18.39,2.79A7.58,7.58,0,0,0,112.81,277Z" transform="translate(-71.11 -71.14)"/><path class="cls-5" d="M115.76,308.1A12.18,12.18,0,0,1,107,319.47a8.68,8.68,0,0,1-5.47-.15c-2-.75-4-1.42-5.88-2.31-3-1.42-5-5.65-4.36-9.1,1-5.27,6-9.79,11.79-10.59a11.27,11.27,0,0,1,12.41,8.5A9.75,9.75,0,0,1,115.76,308.1Zm-16.52,5.53a46.93,46.93,0,0,0,8.87-1.21,11.87,11.87,0,0,0,4.52-2,3.77,3.77,0,0,0,1.2-4.94,8.56,8.56,0,0,0-5-4.72c-4.42-1.6-10.88.45-13.55,4.33a5,5,0,0,0-.53,5.59C95.81,312.6,97.2,314.16,99.24,313.63Z" transform="translate(-71.11 -71.14)"/><path class="cls-5" d="M205.11,143.89l1.23-2.39c1.43,1.85,1.51,2.82.39,4.28s-1.88,1.7-3.66,1a12.86,12.86,0,0,1-4.9-3.6,51.73,51.73,0,0,1-8.29-12.83,46.57,46.57,0,0,1-4-11.16c-.38-2-.27-2.07,1.32-3.1a1.13,1.13,0,0,1,1.64.21,28.76,28.76,0,0,1,4.55,5.42,65.43,65.43,0,0,1,4.74,8.75c1.61,3.55,3.48,7,4.9,10.61A6.22,6.22,0,0,0,205.11,143.89Z" transform="translate(-71.11 -71.14)"/><path class="cls-5" d="M397.79,146.25a8,8,0,0,1,3.77-2.57,44.52,44.52,0,0,1,7.13-1.5c5-.94,4-.12,3.8-4.63a26.72,26.72,0,0,1,.46-7.83,9.75,9.75,0,0,1,1.4-3.14c.9-1.28,2.06-1.25,2.87.07a8.41,8.41,0,0,1,1.16,4.4c0,1.92-.05,3.84-.08,5.77,0,1,0,1.9,0,2.94a17.68,17.68,0,0,0,4.17-1.24,22.73,22.73,0,0,1,4.43-1.22,4.31,4.31,0,0,1,3.12.57,2.63,2.63,0,0,1-1.81,1.66,45.4,45.4,0,0,1-8.42,2.63,2.58,2.58,0,0,0-2.22,2.18c-.75,3.11-1.68,6.17-2.54,9.25a2.13,2.13,0,0,1-.6,1.28,8.55,8.55,0,0,1-1.39-4.12c-.2-1.66-.29-3.32-.42-5-.11-1.48-.24-1.6-1.75-1.5a16.25,16.25,0,0,0-4.66,1.1,22.3,22.3,0,0,1-4.23,1.24A7.58,7.58,0,0,1,397.79,146.25Z" transform="translate(-71.11 -71.14)"/><path class="cls-5" d="M112.8,287.36c-.22-.83-1.1-1.32-1.43-2.23a1.72,1.72,0,0,1,2.52.16c.18.19.38.35.56.53,2.12,2.24,1.94,3.46-.76,4.95a29.49,29.49,0,0,1-10.82,3.08,53.26,53.26,0,0,1-17.76-.66,20.42,20.42,0,0,1-4.36-1.43A1.75,1.75,0,0,1,79.69,290c0-.89.43-1.23,1.14-1.53a21.75,21.75,0,0,1,10-1.54c3.07.17,6.09.7,9.14,1.12,4,.55,8,.9,12-.16a6.09,6.09,0,0,0,.71-.27S112.72,287.48,112.8,287.36Z" transform="translate(-71.11 -71.14)"/><path class="cls-5" d="M337.37,118.65a9.92,9.92,0,0,0,2.45-.41c.74-.07,1.07.27.92,1a4.26,4.26,0,0,1-4.09,2.89A2.33,2.33,0,0,1,335,121a12.46,12.46,0,0,1-2.14-9.25,74.18,74.18,0,0,1,6-21.1A18.49,18.49,0,0,1,341,86.9c.33-.41.59-1.15,1.33-.71s1.53.67,1.33,1.82c-.33,1.95-.52,3.93-.81,5.88A199.18,199.18,0,0,1,337.37,118.65Z" transform="translate(-71.11 -71.14)"/><path class="cls-5" d="M503,247.79c-1.23.06-1.78-.41-1.85-1.43a5.16,5.16,0,0,0-.17-.94c-.7-2.83-1.1-3.06-3.88-2.17-4.93,1.57-9.85,3.18-14.8,4.71-1.09.33-1.81.78-1.76,2a6.11,6.11,0,0,1-.21,1.28c-.19,0-.32.11-.4.08-2.35-1-2.82-2-1.94-4.44a8.71,8.71,0,0,1,3.73-4.26,32.53,32.53,0,0,1,9.91-4c1.91-.48,3.86-.84,6-1.29-.19-1.07-.38-2.11-.57-3.15-.06-.31-.15-.66.24-.82s.72.08.91.46.29.57.43.86c1,1.92,1,1.93,3.16,1.51,1.63-.31,3.26-.65,4.9-.94a3.24,3.24,0,0,1,3.65,2.09c.39,1.07.22,1.51-.87,1.91-2,.76-4.08,1.5-6.15,2.16a1.25,1.25,0,0,0-1,1.67C502.58,244.61,502.77,246.13,503,247.79Z" transform="translate(-71.11 -71.14)"/><path class="cls-5" d="M497.19,273.67a8,8,0,0,1-3.43-4,31.74,31.74,0,0,1-1.19-3c-.3-.9-.82-1-1.6-.63a19.7,19.7,0,0,1-4.1,1.6,10.28,10.28,0,0,1-3.61.38,4.11,4.11,0,0,1-4-3.9,7.18,7.18,0,0,1,5.89-7.4,3.33,3.33,0,0,1,3.14,1.05,5.18,5.18,0,0,0,.41.4c1.81,1.74,1.82,1.75,4,.53a30.25,30.25,0,0,1,8.94-2.77,2.25,2.25,0,0,1,1.48.24c3.51,1.6,5.6,6.73,4.19,10.32a4.55,4.55,0,0,1-5.42,2.88c-.38-.08-.81-.15-.91-.57s.26-.68.6-.86a9.27,9.27,0,0,0,2.62-1.93c1-1.13,1.9-2.32,1.18-4a4.16,4.16,0,0,0-4.33-2.2,13.4,13.4,0,0,0-7,3.79c-.63.57-.17,1,.14,1.49a20.34,20.34,0,0,1,2.83,6.47A4.43,4.43,0,0,1,497.19,273.67Zm-8.27-12.13c-1-.62-1.85-1.16-2.72-1.67-.25-.15-.53-.43-.85-.2a18.13,18.13,0,0,0-3.2,2.36c-.58.62-.53,1.73-.53,2.76C484.77,265.15,487,263.78,488.92,261.54Z" transform="translate(-71.11 -71.14)"/><path class="cls-5" d="M196.28,149.79c.67-.8.55-1.81,1.09-2.54,1.47.75,1.53.85,1.33,2.23l0,.18c-.59,3.48-1.79,4.08-4.91,2.44a20.46,20.46,0,0,1-4.26-2.94,53.45,53.45,0,0,1-13.61-19.06,20.31,20.31,0,0,1-1.29-4.41c-.19-1,.43-1.46,1.11-2s1.18-.12,1.71.21a20,20,0,0,1,6.09,6,57.78,57.78,0,0,1,3.72,6.71c1.24,2.45,2.4,5,3.87,7.28A21.94,21.94,0,0,0,196.28,149.79Z" transform="translate(-71.11 -71.14)"/><path class="cls-5" d="M152.56,172.31c.6,1.22.21,2.39-.12,3.55a22.27,22.27,0,0,1-2,4.56c-.43.79-.36,1.23.47,1.65,1.25.65,2.46,1.38,3.66,2.11a15.17,15.17,0,0,1,3.12,2.53,2.57,2.57,0,0,1,.58,2.81c-1,3.06-3.31,4.84-6.07,4.54a6.35,6.35,0,0,1-5.37-5.7c-.09-.8.42-1.8-.29-2.34a7.19,7.19,0,0,0-2.34-.8,21.87,21.87,0,0,1-6.28-2.8,6.77,6.77,0,0,1-3-7.33,6.07,6.07,0,0,1,4.27-5,6.71,6.71,0,0,1,6.8,1.47c.28.24.64.5.38.94s-.65.35-1,.31c-1.47-.13-3-.2-4.4-.42a1.91,1.91,0,0,0-2.1.9c-1.44,2.06-1.3,3.34.63,4.93a15.1,15.1,0,0,0,7.17,3c.83.16,1.12-.28,1.44-.9,1.21-2.33,2.45-4.64,3.69-6.95C152,173,152.09,172.56,152.56,172.31Zm3.7,16.89c-1.78-.9-3.41-1.77-5.09-2.56a1.37,1.37,0,0,0-2.06.87,3.55,3.55,0,0,0,3.09,3.74A3.93,3.93,0,0,0,156.26,189.2Z" transform="translate(-71.11 -71.14)"/><path class="cls-5" d="M149.35,162.74c-1,.74-1.39,2.09-2.54,2.88-.61-1-.09-1.68.3-2.38,1.16-2,1.1-2.61-.58-4.34-.76-.78-1.58-1.5-2.37-2.26a8.67,8.67,0,0,1-1.68-2.08c-.81-1.53,0-2.81,1.73-2.83a5.11,5.11,0,0,1,3.46,1.46c.82.71,1.56,1.52,2.33,2.28l1.37,1.31,4-4c.84.56.73,1.06.25,1.67-.95,1.2-1.85,2.45-2.87,3.8,3.34,3.13,6.07,6.8,9.69,9.6a23.65,23.65,0,0,0,5,2.91c.92.4,1.67.51,2.39-.33.27-.31.57-.68,1.13-.32s.4.82.23,1.32c-.74,2.27-1.41,2.82-3.8,3a10.08,10.08,0,0,1-5.54-1.26,26.06,26.06,0,0,1-6.05-4.37c-1.54-1.45-3-2.95-4.54-4.42A7.49,7.49,0,0,0,149.35,162.74Z" transform="translate(-71.11 -71.14)"/><path class="cls-5" d="M232.08,107.79a8.66,8.66,0,0,0-2.6,7.91,35.25,35.25,0,0,0,1.87,6.83,47,47,0,0,1,1.85,6.24,10.33,10.33,0,0,1,.16,3.23c-.53.38-.85-.07-1.18-.31a11.71,11.71,0,0,1-2.41-2.46,34.24,34.24,0,0,1-6.57-14.55,10.7,10.7,0,0,1,.3-6.06c.52-1.29.92-1.39,1.91-.44a30.05,30.05,0,0,1,2,2.27c.67-.17.77-.74,1-1.17a7.46,7.46,0,0,1,3.91-3.51,2.31,2.31,0,0,1,2.18.1,9.7,9.7,0,0,1,5,6.87,1.39,1.39,0,0,1-.82,1.73,1.34,1.34,0,0,1-1.72-.42,19.94,19.94,0,0,1-2-3A8.08,8.08,0,0,0,232.08,107.79Z" transform="translate(-71.11 -71.14)"/><path class="cls-5" d="M393.43,141.25a18.38,18.38,0,0,1,1.81-6.75,33.31,33.31,0,0,1,10.05-12.17c.53-.4,1-.92,1.88-.59,1.46.55,1.74.81,1.57,2.35a13.27,13.27,0,0,1-1.71,5.06c-2.48,4.48-5.95,8.15-9.6,11.67-.69.67-1.41,1.31-2.14,1.94-.37.32-.72.83-1.31.49a1.35,1.35,0,0,1-.55-1.35Z" transform="translate(-71.11 -71.14)"/><path class="cls-5" d="M413.85,114.75c0,.43-2.07,1.72-2.77,1.74s-1.91-1.38-1.87-2.33c0-.67,1.43-2.34,2-2.36C412.16,111.78,413.89,113.7,413.85,114.75Z" transform="translate(-71.11 -71.14)"/></g></g></svg>